Coordinates
version=1
nRows=5
nColumns=63
inDegrees=yes

Units are S.I. units (second, meters, Newtons, ...)
If the header above contains a line with 'inDegrees', this indicates whether rotational values are in degrees (yes) or radians (no).

endheader
time	pelvis_tilt	pelvis_list	pelvis_rotation	pelvis_tx	pelvis_ty	pelvis_tz	hip_flexion_r	hip_adduction_r	hip_rotation_r	knee_angle_r	knee_angle_r_beta	ankle_angle_r	subtalar_angle_r	mtp_angle_r	hip_flexion_l	hip_adduction_l	hip_rotation_l	knee_angle_l	knee_angle_l_beta	ankle_angle_l	subtalar_angle_l	mtp_angle_l	L5_S1_Flex_Ext	L5_S1_Lat_Bending	L5_S1_axial_rotation	L4_L5_Flex_Ext	L4_L5_Lat_Bending	L4_L5_axial_rotation	L3_L4_Flex_Ext	L3_L4_Lat_Bending	L3_L4_axial_rotation	L2_L3_Flex_Ext	L2_L3_Lat_Bending	L2_L3_axial_rotation	L1_L2_Flex_Ext	L1_L2_Lat_Bending	L1_L2_axial_rotation	L1_T12_Flex_Ext	L1_T12_Lat_Bending	L1_T12_axial_rotation	Abs_r3	Abs_r2	Abs_r1	Abs_t1	Abs_t2	neck_flexion	neck_bending	neck_rotation	arm_flex_r	arm_add_r	arm_rot_r	elbow_flex_r	pro_sup_r	wrist_flex_r	wrist_dev_r	arm_flex_l	arm_add_l	arm_rot_l	elbow_flex_l	pro_sup_l	wrist_flex_l	wrist_dev_l
      4.98000000	      2.64511095	     -8.66662195	     77.28328901	      0.15779193	      0.86664322	      0.62785309	      6.80373291	     -2.56503552	      3.40066239	     16.59050738	      0.28955898	     24.66839506	    -11.52009983	      0.00000000	      2.73425969	     -1.38172179	     -6.76497660	     12.01421871	      0.20968767	     38.77503276	     17.93494167	      0.00000000	     -0.16361995	      0.35611828	     -0.06684926	     -0.30385861	      0.47363731	     -0.07102733	     -0.26881122	      0.86586598	     -0.07102733	     -0.18700124	      0.86586598	     -0.05849310	     -0.15193749	      0.72619639	     -0.05431502	     -0.09349244	      0.55162721	     -0.05013694	     -1.16872096	      4.02848119	     -0.37179551	      0.00000000	      0.00000000	     27.41394873	     -2.68607045	     -7.52318600	      4.55749695	    -11.49999175	    175.11443248	      1.47627699	     47.36812644	    -15.84270731	      2.37506079	     11.74479455	     -9.76300721	    172.84766981	      3.98991463	     33.95970424	    -11.29613599	      4.31596053
      5.00000000	      2.72876019	     -8.77123021	     77.23990768	      0.15918716	      0.86729310	      0.62966653	      7.14695320	     -2.32344157	      3.20804137	     16.69916900	      0.29145548	     24.66888319	    -11.75619672	      0.00000000	      2.75780006	     -1.51323239	     -5.98819908	     11.88792549	      0.20748344	     38.29812819	     17.80595984	      0.00000000	     -0.20531700	      0.37009963	     -0.16218391	     -0.38129420	      0.49223251	     -0.17232041	     -0.33731530	      0.89986024	     -0.17232041	     -0.23465680	      0.89986024	     -0.14191092	     -0.19065737	      0.75470716	     -0.13177443	     -0.11731813	      0.57328432	     -0.12163794	     -1.46655880	      4.18664101	     -0.90201827	      0.00000000	      0.00000000	     26.83719487	     -2.59376625	     -8.00676065	      4.70676418	    -11.33142225	    175.16269235	      1.19016860	     48.85028639	    -16.01050216	      2.52735489	     12.02143454	    -10.04068031	    169.69601661	      3.98063923	     31.53428071	    -11.16552387	      3.79392729
      5.02000000	      2.85367070	     -8.92645263	     77.27932539	      0.16043304	      0.86787547	      0.63135009	      7.52902914	     -2.04326636	      3.08197889	     16.80363337	      0.29327873	     24.72925573	    -12.04615752	      0.00000000	      2.90082965	     -1.72399921	     -5.34376881	     11.93500561	      0.20830514	     37.66310531	     17.65170910	      0.00000000	     -0.23768276	      0.39201749	     -0.30419242	     -0.44140066	      0.52138326	     -0.32320445	     -0.39048901	      0.95315132	     -0.32320445	     -0.27164763	      0.95315132	     -0.26616837	     -0.22071221	      0.79940206	     -0.24715634	     -0.13581193	      0.60723509	     -0.22814432	     -1.69774422	      4.43458023	     -1.69182698	      0.00000000	      0.00000000	     25.63913603	     -2.35195824	     -8.55020443	      4.91794442	    -11.15290885	    171.51699322	      1.08355325	     54.49324656	    -16.43921974	      2.96037037	     12.09592928	    -10.41525912	    163.60427022	      4.12588227	     29.30962569	    -11.48259085	      2.93288389
      5.04000000	      2.99363792	     -9.13518941	     77.22569758	      0.16149376	      0.86830764	      0.63265380	      8.02814336	     -1.78484342	      2.92169463	     17.06758109	      0.29788549	     24.85441094	    -12.12732480	      0.00000000	      3.12642599	     -1.95352795	     -4.81640910	     12.12118924	      0.21155466	     37.05897954	     17.37199680	      0.00000000	     -0.25334157	      0.42425044	     -0.44836229	     -0.47048062	      0.56425309	     -0.47638493	     -0.41621486	      1.03152253	     -0.47638493	     -0.28954408	      1.03152253	     -0.39231700	     -0.23525298	      0.86513150	     -0.36429436	     -0.14475937	      0.65716394	     -0.33627172	     -1.80959348	      4.79920586	     -2.49365654	      0.00000000	      0.00000000	     24.07110227	     -2.24207633	     -9.41244687	      5.15460515	    -11.18352569	    170.30051787	      1.06179998	     53.82859541	    -16.49362979	      2.65246762	     12.06742303	    -10.74909033	    157.78450385	      4.37020181	     23.99767867	    -11.93425380	      1.55166897
      5.06000000	      3.10632250	     -9.44701846	     77.11805063	      0.16283799	      0.86852187	      0.63381786	      8.67879166	     -1.49071495	      2.97850302	     17.47027804	      0.30491387	     24.77499056	    -12.58428848	      0.00000000	      3.49130632	     -2.22784610	     -4.55846603	     12.39998544	      0.21642057	     36.54114635	     17.35677465	      0.00000000	     -0.25192693	      0.46160937	     -0.60897517	     -0.46785351	      0.61394047	     -0.64703612	     -0.41389076	      1.12235703	     -0.64703612	     -0.28792729	      1.12235703	     -0.53285328	     -0.23393935	      0.94131383	     -0.49479233	     -0.14395105	      0.71503292	     -0.45673138	     -1.79948890	      5.22181755	     -3.38693723	      0.00000000	      0.00000000	     22.98685369	     -2.17926375	    -10.23996855	      5.31941248	    -11.36267179	    166.95853604	      1.10466229	     50.89518713	    -16.23993190	      0.96207746	     11.89007625	    -11.07104153	    151.34190374	      4.53538329	     17.86618230	    -11.95971528	     -0.37718685
